<?xml version="1.0" encoding="utf-8"?>
<svg version="1.1" xmlns:xlink="http://www.w3.org/1999/xlink" width="22px" height="14px" xmlns="http://www.w3.org/2000/svg">
  <g transform="matrix(1 0 0 1 -35 -84 )">
    <path d="M 21.978557502193 12.6610407974684  L 21.978557502193 14  L 0.0214424978069978 14  L 0.0214424978069978 12.6610407974684  L 21.978557502193 12.6610407974684  Z M 21.978557502193 6.36005625632912  L 21.978557502193 7.62025316455696  L 5.51072123684211 7.62025316455696  L 5.51072123684211 6.36005625632912  L 21.978557502193 6.36005625632912  Z M 21.978557502193 0  L 21.978557502193 1.31926864556962  L 0.0214424978069978 1.31926864556962  L 0.0214424978069978 0  L 21.978557502193 0  Z M 1.9426900504386 6.99015472151899  L 4.82456140350875 4.34374121202532  L 3.86393762719295 3.46160338291139  L 0.0214424978069978 6.99015472151899  L 0.57037035964915 7.49423347151898  L 4.00116959868423 10.6447257310127  L 4.961793375 9.76258790189874  L 1.9426900504386 6.99015472151899  Z " fill-rule="nonzero" fill="#304156" stroke="none" transform="matrix(1 0 0 1 35 84 )" />
  </g>
</svg>